<?xml version="1.0" encoding="utf-8"?>
<!-- Generator: Adobe Illustrator 16.0.0, SVG Export Plug-In . SVG Version: 6.00 Build 0)  -->
<!DOCTYPE svg PUBLIC "-//W3C//DTD SVG 1.1//EN" "http://www.w3.org/Graphics/SVG/1.1/DTD/svg11.dtd">
<svg version="1.1" id="Layer_1" xmlns="http://www.w3.org/2000/svg" xmlns:xlink="http://www.w3.org/1999/xlink" x="0px" y="0px"
	 width="208px" height="13.88px" viewBox="0 0 208 13.88" enable-background="new 0 0 208 13.88" xml:space="preserve">
<path fill="#FFFFFF" d="M12.409,12.585V7.286H3.498v5.299H0.5V0.268h2.998v4.498h8.911V0.268h2.998v12.317H12.409L12.409,12.585z
	 M29.326,12.585l-1.21-2.164h-6.44l-1.209,2.164h-3.084l5.81-10.478h3.407l5.811,10.478H29.326L29.326,12.585z M24.896,4.612
	L23.005,8.07h3.782L24.896,4.612L24.896,4.612z M44.896,8.837l2.675,3.748h-3.407l-2.471-3.392h-4.582v3.392h-2.999V2.107h8.808
	c0.625,0,1.196,0.085,1.712,0.256c0.518,0.17,0.958,0.412,1.321,0.723c0.363,0.313,0.646,0.685,0.844,1.117
	c0.199,0.432,0.298,0.91,0.298,1.432C47.095,7.201,46.362,8.27,44.896,8.837L44.896,8.837z M43.739,4.77
	c-0.262-0.208-0.63-0.312-1.107-0.312h-5.52v2.385h5.537c0.465,0,0.829-0.116,1.09-0.353C44,6.252,44.13,5.951,44.13,5.582
	C44.13,5.248,44,4.977,43.739,4.77L43.739,4.77z M57.351,12.585H54.71L48.253,2.107h3.373l4.396,7.155l4.413-7.155h3.373
	L57.351,12.585L57.351,12.585z M77.165,10.234v2.351H65.375V2.107h11.38v2.351h-8.382v1.738h5.69v2.352h-5.69v1.688H77.165
	L77.165,10.234z M87.744,8.547v4.038h-2.998V8.547l-6.56-6.44h3.799l4.277,4.225l4.224-4.225h3.8L87.744,8.547L87.744,8.547z
	 M109.483,12.585h-2.795L99.397,0.25h3.355l5.332,9.03l5.335-9.03h3.354L109.483,12.585L109.483,12.585z M118.476,12.585V2.107
	h3.001v10.478H118.476L118.476,12.585z M135.94,6.008c-1.238-1.249-2.664-1.874-4.275-1.874c-0.683,0-1.297,0.078-1.842,0.232
	c-0.545,0.153-1.008,0.368-1.389,0.643c-0.38,0.273-0.669,0.604-0.866,0.992c-0.199,0.389-0.3,0.823-0.3,1.301
	c0,0.47,0.103,0.901,0.307,1.294c0.203,0.394,0.498,0.73,0.876,1.009c0.381,0.281,0.839,0.502,1.372,0.66
	c0.534,0.161,1.138,0.241,1.807,0.241c1.704,0,3.157-0.643,4.362-1.925l2.538,1.311c-1.579,1.977-3.879,2.965-6.9,2.965
	c-1.103,0-2.115-0.151-3.041-0.45c-0.927-0.303-1.73-0.72-2.416-1.254c-1.269-0.998-1.902-2.281-1.902-3.851
	c0-1.543,0.64-2.815,1.919-3.815c0.686-0.533,1.493-0.951,2.425-1.252c0.932-0.301,1.938-0.451,3.016-0.451
	c1.487,0,2.806,0.27,3.952,0.809c1.147,0.54,2.175,1.366,3.083,2.479L135.94,6.008L135.94,6.008z M152.722,10.234v2.351h-11.791
	V2.107h11.382v2.351h-8.383v1.738h5.691v2.352h-5.691v1.688H152.722L152.722,10.234z M166.37,9.297
	c-0.619-0.625-1.331-0.938-2.139-0.938c-0.34,0-0.646,0.037-0.919,0.115c-0.273,0.078-0.505,0.185-0.695,0.322
	s-0.335,0.303-0.434,0.497s-0.148,0.411-0.148,0.651c0,0.232,0.05,0.449,0.153,0.645c0.102,0.198,0.247,0.366,0.438,0.507
	c0.191,0.141,0.421,0.25,0.687,0.329c0.267,0.082,0.567,0.121,0.902,0.121c0.852,0,1.578-0.323,2.181-0.962l1.271,0.654
	c-0.791,0.989-1.941,1.482-3.451,1.482c-0.552,0-1.058-0.076-1.52-0.226c-0.464-0.151-0.867-0.358-1.209-0.626
	c-0.634-0.499-0.953-1.142-0.953-1.925c0-0.772,0.323-1.409,0.962-1.908c0.343-0.268,0.748-0.476,1.213-0.627
	c0.464-0.149,0.967-0.225,1.507-0.225c0.745,0,1.403,0.135,1.977,0.405c0.574,0.27,1.088,0.682,1.541,1.239L166.37,9.297
	L166.37,9.297z M175.031,11.878c-0.339,0.268-0.742,0.476-1.208,0.627c-0.466,0.149-0.97,0.226-1.516,0.226
	c-0.551,0-1.06-0.076-1.525-0.226c-0.465-0.151-0.868-0.359-1.209-0.627c-0.63-0.494-0.946-1.137-0.946-1.924
	c0-0.779,0.318-1.418,0.954-1.917c0.342-0.273,0.745-0.483,1.211-0.63c0.464-0.148,0.97-0.222,1.516-0.222
	c0.54,0,1.041,0.074,1.506,0.222c0.469,0.147,0.869,0.357,1.21,0.63c0.637,0.499,0.955,1.139,0.955,1.917
	C175.979,10.741,175.662,11.384,175.031,11.878L175.031,11.878z M174.288,9.308c-0.101-0.194-0.243-0.362-0.432-0.5
	c-0.187-0.139-0.409-0.248-0.671-0.329c-0.262-0.08-0.555-0.119-0.878-0.119c-0.331,0-0.626,0.039-0.892,0.119
	c-0.262,0.081-0.489,0.19-0.676,0.329c-0.188,0.138-0.331,0.307-0.431,0.5c-0.101,0.196-0.149,0.411-0.149,0.646
	c0,0.237,0.049,0.454,0.149,0.65c0.1,0.195,0.241,0.364,0.427,0.506c0.183,0.143,0.409,0.252,0.673,0.327
	c0.265,0.078,0.563,0.116,0.898,0.116c0.329,0,0.625-0.038,0.886-0.116c0.261-0.075,0.484-0.185,0.669-0.327
	c0.183-0.142,0.325-0.311,0.426-0.506c0.1-0.196,0.149-0.413,0.149-0.65C174.437,9.719,174.387,9.504,174.288,9.308L174.288,9.308z
	 M178.645,13.366c-0.197,0.176-0.49,0.264-0.877,0.264h-0.357v-0.708h0.094c0.203,0,0.355-0.024,0.453-0.071
	c0.102-0.049,0.152-0.131,0.152-0.243v-0.272h-0.732V11.16h1.564v1.442C178.941,12.937,178.844,13.192,178.645,13.366
	L178.645,13.366z M183.135,12.585V7.347h1.498v4.063h4.029v1.175H183.135L183.135,12.585z M193.322,8.521v4.064h-1.5V8.521h-2.496
	V7.347h6.482v1.173H193.322L193.322,8.521z M202.879,11.953c-0.273,0.2-0.59,0.354-0.949,0.466c-0.361,0.111-0.75,0.166-1.164,0.166
	h-3.809V7.347h3.629c0.508,0,0.963,0.064,1.369,0.194c0.406,0.131,0.75,0.314,1.035,0.551c0.283,0.235,0.5,0.52,0.65,0.856
	c0.152,0.334,0.225,0.706,0.225,1.117C203.865,10.836,203.537,11.466,202.879,11.953L202.879,11.953z M202.184,9.443
	c-0.082-0.186-0.195-0.347-0.34-0.484c-0.145-0.139-0.318-0.244-0.52-0.322s-0.422-0.117-0.66-0.117h-2.207v2.89h2.215
	c0.227,0,0.441-0.036,0.643-0.109c0.203-0.07,0.377-0.168,0.52-0.293c0.145-0.127,0.262-0.272,0.346-0.438
	c0.086-0.167,0.129-0.341,0.129-0.523C202.309,9.829,202.268,9.629,202.184,9.443L202.184,9.443z M205.264,12.585V11.41h1.568v1.175
	H205.264L205.264,12.585z"/>
</svg>
