<?xml version="1.0" encoding="utf-8"?>
<!-- Generator: Adobe Illustrator 16.0.0, SVG Export Plug-In . SVG Version: 6.00 Build 0)  -->
<!DOCTYPE svg PUBLIC "-//W3C//DTD SVG 1.1//EN" "http://www.w3.org/Graphics/SVG/1.1/DTD/svg11.dtd">
<svg version="1.1" id="Layer_1" xmlns="http://www.w3.org/2000/svg" xmlns:xlink="http://www.w3.org/1999/xlink" x="0px" y="0px"
	 width="202.5px" height="54.25px" viewBox="0 0 202.5 54.25" enable-background="new 0 0 202.5 54.25" xml:space="preserve">
<path fill="#FFFFFF" d="M38.819,12.942c-0.985,0-1.782-0.856-1.782-1.908c0-1.057,0.797-1.909,1.782-1.909
	c0.987,0,1.782,0.852,1.782,1.909C40.601,12.085,39.806,12.942,38.819,12.942 M30.854,13.211c-0.864,0-1.564-0.749-1.564-1.674
	c0-0.922,0.7-1.672,1.564-1.672c0.861,0,1.563,0.75,1.563,1.672C32.417,12.462,31.715,13.211,30.854,13.211 M23.716,13.486
	c-0.758,0-1.372-0.658-1.372-1.471c0-0.808,0.614-1.467,1.372-1.467s1.372,0.659,1.372,1.467
	C25.088,12.828,24.474,13.486,23.716,13.486 M44.291,4.504c-8.363-6.621-23.402-1.931-33.58,10.47
	C0.532,27.38-0.94,42.805,7.428,49.423c7.003,5.542,18.675,3.157,28.265-5.042c-2.409-1.812-4.203-6.16-4.588-11.438
	c-1.624,0.529-3.473,0.907-5.463,1.102c0.368,3.398,1.428,6.262,2.875,7.899c-1.981-1.068-3.582-3.994-4.329-7.79
	c-0.526,0.027-1.058,0.044-1.6,0.044c-1.197,0-2.356-0.074-3.473-0.198c0.458,2.266,1.279,4.144,2.319,5.321
	c-1.505-0.812-2.767-2.817-3.529-5.479c-6.084-0.945-10.488-3.673-10.488-6.895c0-3.149,4.206-5.829,10.081-6.829
	c-3.86,1.167-6.419,3.207-6.419,5.529c0,2.291,2.489,4.306,6.261,5.483c-0.138-1.002-0.215-2.055-0.215-3.146
	c0-6.477,2.601-11.731,5.814-11.731c1.333,0,2.56,0.912,3.539,2.437c1.049-1.492,2.328-2.375,3.711-2.375
	c1.463,0,2.807,0.992,3.891,2.647c1.166-1.653,2.584-2.633,4.118-2.633c3.119,0,5.773,4.016,6.762,9.626
	c-1.157-3.687-3.176-6.128-5.475-6.128c-3.237,0-5.913,4.84-6.414,11.173c1.709-0.571,3.152-1.31,4.171-2.18
	c-0.735,1.315-2.23,2.481-4.239,3.39c-0.011,0.309-0.023,0.617-0.023,0.932c0,4.627,1.162,8.683,2.914,11.07
	c1.795-1.554,3.515-3.312,5.116-5.262C51.186,26.549,52.657,11.125,44.291,4.504"/>
<path fill="#FFFFFF" d="M31.022,30.815c0-4.209,0.896-7.989,2.316-10.634c-0.622-0.462-1.294-0.719-1.994-0.719
	c-3.233,0-5.854,5.366-5.854,11.986c0,0.257,0.017,0.504,0.025,0.758c1.976-0.032,3.839-0.256,5.522-0.636
	C31.032,31.318,31.022,31.069,31.022,30.815"/>
<path fill="#FFFFFF" d="M24.231,30.352c0-3.787,0.805-7.188,2.083-9.57c-0.572-0.435-1.187-0.694-1.833-0.694
	c-2.911,0-5.269,4.829-5.269,10.787c0,0.561,0.025,1.106,0.066,1.644c1.561,0.37,3.285,0.606,5.114,0.676
	C24.29,32.278,24.231,31.33,24.231,30.352"/>
<path fill="#FFFFFF" d="M65.012,21.163c-0.766-0.398-1.623-0.5-2.524-0.5c-3.046,0-5.134,2.284-5.134,5.264
	c0,2.004,1.608,3.611,3.816,3.611c1.302,0,1.633-0.176,2.233-0.338l-0.122,0.897c-0.418,0.121-0.929,0.326-2.039,0.326
	c-2.688,0-4.924-1.725-4.924-4.512c0-3.597,2.611-6.133,6.23-6.133c1.122,0,1.948,0.131,2.822,0.53L65.012,21.163z"/>
<path fill="#FFFFFF" d="M68.525,29.625c1.981,0,3.09-2.063,3.09-3.833c0-1.415-0.646-2.445-2.131-2.445
	c-2.116,0-3.107,2.033-3.107,3.949C66.376,28.595,67.187,29.625,68.525,29.625 M69.605,22.549c1.953,0,3.048,1.282,3.048,3.228
	c0,2.509-1.607,4.645-4.25,4.645c-1.893,0-3.061-1.4-3.061-3.272C65.343,24.629,67.007,22.549,69.605,22.549"/>
<polygon fill="#FFFFFF" points="76.301,19.187 77.293,19.187 74.891,30.247 73.898,30.247 "/>
<polygon fill="#FFFFFF" points="80.007,19.187 81,19.187 78.601,30.247 77.607,30.247 "/>
<path fill="#FFFFFF" d="M86.332,21.724h-0.632l-1.831-2.122h1.185L86.332,21.724z M87.155,25.956c0.016-0.206,0.046-0.4,0.046-0.576
	c0-1.226-0.525-2.033-1.758-2.033c-1.47,0-2.551,1.236-2.81,2.608H87.155z M82.472,26.75c-0.029,0.192-0.047,0.399-0.047,0.607
	c0,1.445,0.979,2.267,2.329,2.267c0.946,0,1.638-0.249,2.237-0.5l-0.076,0.898c-0.448,0.163-1.035,0.398-2.283,0.398
	c-1.788,0-3.152-1.046-3.152-3.064c0-2.524,1.502-4.809,3.964-4.809c1.803,0,2.704,1.091,2.704,2.8c0,0.457-0.062,0.929-0.105,1.401
	H82.472z"/>
<path fill="#FFFFFF" d="M92.364,29.45c1.909,0,2.883-1.991,2.883-3.714c0-1.341-0.675-2.388-2.069-2.388
	c-1.863,0-2.851,2.179-2.851,3.831C90.327,28.432,90.957,29.45,92.364,29.45 M88.929,31.986c0.75,0.485,1.515,0.646,2.34,0.646
	c2.191,0,2.78-1.06,3.229-2.932l0.12-0.548h-0.03c-0.676,0.738-1.548,1.094-2.569,1.094c-1.815,0-2.729-1.444-2.729-3.068
	c0-2.374,1.347-4.629,3.898-4.629c1.204,0,2.241,0.486,2.48,1.711h0.029c0.09-0.503,0.212-1.021,0.359-1.534h0.948
	c-0.077,0.309-0.21,0.885-0.36,1.534l-1.141,5.174c-0.572,2.607-1.126,3.996-4.235,3.996c-0.886,0-1.68-0.106-2.597-0.503
	L88.929,31.986z"/>
<path fill="#FFFFFF" d="M103.76,25.956c0.015-0.207,0.047-0.4,0.047-0.576c0-1.226-0.525-2.033-1.756-2.033
	c-1.475,0-2.552,1.236-2.809,2.609H103.76z M99.078,26.75c-0.03,0.192-0.047,0.399-0.047,0.607c0,1.445,0.978,2.267,2.33,2.267
	c0.947,0,1.635-0.25,2.237-0.5l-0.077,0.898c-0.45,0.163-1.036,0.398-2.283,0.398c-1.785,0-3.149-1.048-3.149-3.064
	c0-2.524,1.499-4.809,3.963-4.809c1.799,0,2.703,1.091,2.703,2.8c0,0.457-0.061,0.929-0.107,1.401H99.078z"/>
<path fill="#FFFFFF" d="M113.459,20.719h-1.122l0.269-1.241h1.125L113.459,20.719z M111.974,22.727h0.992l-1.62,7.52h-0.992
	L111.974,22.727z"/>
<path fill="#FFFFFF" d="M115.381,23.921c0.09-0.501,0.152-0.829,0.183-1.195h0.947c-0.048,0.472-0.092,0.869-0.167,1.133h0.031
	c0.523-0.793,1.484-1.308,2.43-1.308c1.38,0,2.399,0.764,2.399,2.177c0,0.517-0.115,1.077-0.221,1.549l-0.854,3.968h-0.993
	l0.868-4.146c0.107-0.487,0.166-0.81,0.166-1.311c0-0.885-0.507-1.443-1.473-1.443c-1.649,0-2.534,1.606-2.893,3.328l-0.752,3.572
	h-0.992L115.381,23.921z"/>
<path fill="#FFFFFF" d="M125.354,21.045l1.081-0.369l-0.467,2.051h1.997l-0.197,0.796h-1.966l-0.812,3.713
	c-0.102,0.504-0.224,0.988-0.224,1.477c0,0.588,0.318,0.913,0.871,0.913c0.287,0,0.543-0.058,0.813-0.206l-0.09,0.796
	c-0.284,0.133-0.571,0.207-0.965,0.207c-1.064,0-1.664-0.59-1.664-1.4c0-0.65,0.269-1.844,0.342-2.168l0.739-3.332h-1.533
	l0.211-0.796h1.499L125.354,21.045z"/>
<path fill="#FFFFFF" d="M133.998,25.956c0.014-0.207,0.044-0.4,0.044-0.576c0-1.226-0.523-2.033-1.751-2.033
	c-1.473,0-2.557,1.236-2.808,2.609H133.998z M129.318,26.75c-0.033,0.192-0.047,0.399-0.047,0.607c0,1.445,0.977,2.267,2.326,2.267
	c0.945,0,1.639-0.25,2.24-0.5l-0.077,0.898c-0.451,0.163-1.034,0.398-2.286,0.398c-1.782,0-3.148-1.048-3.148-3.064
	c0-2.524,1.5-4.809,3.965-4.809c1.8,0,2.701,1.091,2.701,2.8c0,0.457-0.058,0.929-0.105,1.401H129.318z"/>
<path fill="#FFFFFF" d="M137.332,24.067c0.091-0.427,0.167-0.868,0.215-1.34h0.94c-0.045,0.472-0.088,0.87-0.163,1.133h0.029
	c0.483-0.736,1.142-1.31,2.134-1.31c0.316,0,0.57,0.059,0.826,0.102l-0.226,0.989c-0.254-0.101-0.54-0.118-0.813-0.118
	c-1.544,0-2.161,1.667-2.447,3.021l-0.78,3.702h-1.008L137.332,24.067z"/>
<path fill="#FFFFFF" d="M142.741,23.921c0.087-0.501,0.144-0.829,0.179-1.195h0.945c-0.044,0.472-0.091,0.869-0.168,1.133h0.033
	c0.525-0.793,1.484-1.308,2.432-1.308c1.38,0,2.402,0.764,2.402,2.177c0,0.517-0.124,1.077-0.228,1.549l-0.854,3.968h-0.99
	l0.872-4.146c0.105-0.487,0.161-0.81,0.161-1.311c0-0.885-0.51-1.443-1.469-1.443c-1.65,0-2.536,1.606-2.897,3.328l-0.752,3.572
	h-0.992L142.741,23.921z"/>
<path fill="#FFFFFF" d="M152.468,29.625c1.772,0,2.583-1.562,2.791-3.141c-0.314,0-0.616-0.029-0.931-0.029
	c-1.276,0-3.346,0.194-3.346,1.845C150.982,29.153,151.701,29.625,152.468,29.625 M155.859,28.46
	c-0.149,0.574-0.256,1.269-0.283,1.787h-0.945c0.044-0.398,0.076-0.783,0.148-1.108h-0.03c-0.646,0.943-1.489,1.284-2.611,1.284
	c-1.187,0-2.195-0.871-2.195-2.109c0-2.198,2.524-2.653,4.401-2.653c0.393,0,0.738,0.03,1.034,0.059
	c0.033-0.22,0.047-0.443,0.047-0.753c0-1.031-0.586-1.617-1.634-1.617c-0.889,0-1.759,0.396-2.271,0.646l0.106-0.946
	c0.539-0.216,1.413-0.498,2.312-0.498c1.654,0,2.521,0.883,2.521,2.446c0,0.295-0.059,0.84-0.194,1.43L155.859,28.46z"/>
<path fill="#FFFFFF" d="M160.593,21.045l1.081-0.369l-0.467,2.051h1.997l-0.193,0.796h-1.972l-0.809,3.713
	c-0.105,0.504-0.226,0.988-0.226,1.477c0,0.588,0.315,0.913,0.872,0.913c0.288,0,0.541-0.058,0.811-0.206l-0.091,0.796
	c-0.285,0.133-0.57,0.207-0.961,0.207c-1.066,0-1.664-0.59-1.664-1.4c0-0.65,0.268-1.844,0.345-2.168l0.731-3.332h-1.528
	l0.213-0.796h1.499L160.593,21.045z"/>
<path fill="#FFFFFF" d="M166.506,20.719h-1.128l0.272-1.241h1.129L166.506,20.719z M165.02,22.727h0.991l-1.625,7.52h-0.989
	L165.02,22.727z"/>
<path fill="#FFFFFF" d="M170.456,29.625c1.979,0,3.09-2.063,3.09-3.833c0-1.415-0.645-2.445-2.133-2.445
	c-2.117,0-3.106,2.033-3.106,3.949C168.308,28.595,169.114,29.625,170.456,29.625 M171.536,22.549c1.95,0,3.045,1.282,3.045,3.228
	c0,2.509-1.606,4.645-4.244,4.645c-1.895,0-3.065-1.4-3.065-3.272C167.273,24.629,168.938,22.549,171.536,22.549"/>
<path fill="#FFFFFF" d="M177.148,23.921c0.092-0.501,0.151-0.829,0.187-1.195h0.941c-0.044,0.472-0.092,0.869-0.165,1.133h0.03
	c0.525-0.793,1.487-1.308,2.432-1.308c1.38,0,2.404,0.764,2.404,2.177c0,0.517-0.122,1.077-0.225,1.549l-0.858,3.968h-0.993
	l0.876-4.146c0.103-0.487,0.161-0.81,0.161-1.311c0-0.885-0.508-1.443-1.472-1.443c-1.648,0-2.538,1.606-2.898,3.328l-0.749,3.572
	h-0.987L177.148,23.921z"/>
<path fill="#FFFFFF" d="M186.881,29.625c1.771,0,2.58-1.562,2.79-3.141c-0.313,0-0.617-0.029-0.93-0.029
	c-1.278,0-3.349,0.194-3.349,1.845C185.393,29.153,186.113,29.625,186.881,29.625 M190.274,28.46
	c-0.152,0.574-0.257,1.269-0.287,1.787h-0.947c0.048-0.398,0.077-0.783,0.149-1.108h-0.024c-0.649,0.943-1.488,1.284-2.615,1.284
	c-1.189,0-2.193-0.871-2.193-2.109c0-2.198,2.524-2.653,4.399-2.653c0.392,0,0.739,0.03,1.036,0.059
	c0.027-0.22,0.047-0.443,0.047-0.753c0-1.031-0.587-1.617-1.643-1.617c-0.883,0-1.751,0.396-2.263,0.646l0.104-0.946
	c0.542-0.216,1.413-0.498,2.314-0.498c1.652,0,2.521,0.883,2.521,2.446c0,0.295-0.062,0.84-0.193,1.43L190.274,28.46z"/>
<polygon fill="#FFFFFF" points="194.838,19.187 195.828,19.187 193.423,30.247 192.436,30.247 "/>
<polygon fill="#FFFFFF" points="47.834,37.372 53.424,37.372 53.634,46.185 53.672,46.185 57.862,37.372 63.566,37.372 
	60.732,50.49 57.25,50.49 59.684,39.741 59.642,39.741 54.399,50.49 51.032,50.49 50.536,39.741 50.496,39.741 48.179,50.49 
	44.929,50.49 "/>
<path fill="#FFFFFF" d="M67.505,48.458c1.473,0,2.357-0.996,2.604-2.313c-0.287-0.055-0.705-0.055-0.918-0.055
	c-1.645-0.054-2.853,0.53-2.853,1.39C66.338,47.935,66.78,48.458,67.505,48.458 M69.8,49.116l-0.034-0.036v0.036
	c-0.73,1.13-2.011,1.599-3.351,1.599c-2.143,0-3.327-0.939-3.327-2.839c0-2.405,2.447-3.588,5.49-3.588
	c0.689,0,1.38,0.056,1.856,0.094c0.037-0.132,0.037-0.264,0.037-0.394c0-0.696-0.705-1.26-1.835-1.26
	c-1.244,0-2.088,0.187-3.234,0.771l0.345-2.46c1.014-0.34,2.104-0.565,3.657-0.565c2.37,0,4.321,0.921,4.321,3.327
	c0,1.542-0.88,3.74-1.261,6.69h-2.814L69.8,49.116z"/>
<path fill="#FFFFFF" d="M79.679,40.698l-0.384,2.013h0.038c0.556-1.149,1.662-2.237,3.08-2.237c0.459,0,0.996,0.055,1.453,0.244
	l-0.782,2.989c-0.442-0.341-0.94-0.415-1.588-0.415c-1.456,0-2.316,1.238-2.563,2.687l-0.976,4.511h-3.445l1.549-7.235
	c0.172-0.845,0.327-1.672,0.421-2.556H79.679z"/>
<path fill="#FFFFFF" d="M86.22,36.62h3.484l-0.538,2.481h-3.481L86.22,36.62z M85.34,40.698h3.483l-2.069,9.792h-3.48L85.34,40.698z
	"/>
<path fill="#FFFFFF" d="M97.358,44.665c0-1.052-0.423-1.938-1.685-1.938c-1.493,0-2.298,0.997-2.542,1.938H97.358z M98.276,50.168
	c-1.205,0.361-2.488,0.546-3.484,0.546c-3.329,0-5.126-2.01-5.126-4.471c0-2.275,1.531-5.771,5.97-5.771
	c2.621,0,4.593,1.294,4.593,4.266c0,0.395-0.116,1.259-0.25,1.839h-7.06c0.037,1.054,0.572,1.88,2.679,1.88
	c0.918,0,2.161-0.225,3.118-0.676L98.276,50.168z"/>
<path fill="#FFFFFF" d="M114.826,45.057c0-0.976-0.496-1.99-1.645-1.99c-1.625,0-2.601,1.521-2.601,3.045
	c0,1.202,0.554,2.006,1.648,2.006C113.853,48.118,114.826,46.354,114.826,45.057 M114.386,48.928h-0.037
	c-0.879,1.092-1.703,1.787-3.615,1.787c-2.143,0-3.713-1.842-3.713-4.041c0-3.212,1.645-6.2,5.051-6.2
	c1.743,0,2.95,0.749,3.462,1.804h0.041l1.205-5.883h3.386l-2.679,12.628c-0.113,0.584-0.17,1.072-0.211,1.468h-3.159L114.386,48.928
	z"/>
<path fill="#FFFFFF" d="M127.38,44.665c0-1.052-0.418-1.938-1.681-1.938c-1.496,0-2.3,0.997-2.55,1.938H127.38z M128.3,50.168
	c-1.206,0.361-2.487,0.546-3.48,0.546c-3.331,0-5.131-2.01-5.131-4.471c0-2.275,1.53-5.771,5.971-5.771
	c2.623,0,4.594,1.294,4.594,4.266c0,0.395-0.117,1.259-0.252,1.839h-7.057c0.038,1.054,0.572,1.88,2.68,1.88
	c0.917,0,2.16-0.225,3.116-0.676L128.3,50.168z"/>
<polygon fill="#FFFFFF" points="139.364,37.372 148.297,37.372 147.8,39.851 142.367,39.851 141.695,42.728 146.94,42.728 
	146.42,45.208 141.253,45.208 140.129,50.49 136.529,50.49 "/>
<path fill="#FFFFFF" d="M152.277,40.698l-0.384,2.013h0.039c0.559-1.149,1.666-2.237,3.082-2.237c0.459,0,0.999,0.055,1.453,0.244
	l-0.785,2.989c-0.439-0.341-0.937-0.415-1.588-0.415c-1.451,0-2.312,1.238-2.563,2.687l-0.977,4.511h-3.442l1.549-7.235
	c0.171-0.845,0.324-1.672,0.423-2.556H152.277z"/>
<path fill="#FFFFFF" d="M160.104,48.458c1.472,0,2.353-0.996,2.603-2.313c-0.29-0.055-0.709-0.055-0.923-0.055
	c-1.642-0.054-2.849,0.53-2.849,1.39C158.935,47.935,159.376,48.458,160.104,48.458 M162.399,49.116l-0.039-0.036v0.036
	c-0.725,1.13-2.01,1.599-3.35,1.599c-2.141,0-3.329-0.939-3.329-2.839c0-2.405,2.452-3.588,5.493-3.588
	c0.688,0,1.379,0.056,1.856,0.094c0.037-0.132,0.037-0.264,0.037-0.394c0-0.696-0.707-1.26-1.833-1.26
	c-1.246,0-2.086,0.187-3.234,0.771l0.342-2.46c1.016-0.34,2.104-0.565,3.656-0.565c2.372,0,4.323,0.921,4.323,3.327
	c0,1.542-0.878,3.74-1.263,6.69h-2.811L162.399,49.116z"/>
<path fill="#FFFFFF" d="M168.656,43.254c0.171-0.845,0.329-1.672,0.423-2.554h3.197l-0.27,1.597h0.039
	c0.994-1.093,2.031-1.825,3.847-1.825c2.008,0,3.099,1.466,3.099,3.381c0,0.661-0.056,1.034-0.267,2.069l-0.92,4.566h-3.561
	l0.959-4.587c0.095-0.485,0.229-0.975,0.229-1.481c0-0.583-0.382-1.166-1.339-1.128c-1.454,0-2.314,1.237-2.563,2.687l-0.976,4.51
	h-3.444L168.656,43.254z"/>
<path fill="#FFFFFF" d="M187.909,50.338c-0.69,0.227-1.609,0.376-2.95,0.376c-2.908,0-4.704-2.01-4.704-4.471
	c0-3.215,2.601-5.771,6.427-5.771c0.845,0,2.125,0.245,3.138,0.656l-0.745,2.351c-0.708-0.319-1.454-0.527-2.218-0.527
	c-1.78,0-3.044,1.128-3.044,3.16c0,1.163,0.917,2.122,2.369,2.122c0.864,0,1.479-0.133,2.224-0.436L187.909,50.338z"/>
<path fill="#FFFFFF" d="M197.414,44.665c0-1.052-0.418-1.938-1.679-1.938c-1.492,0-2.299,0.997-2.548,1.938H197.414z
	 M198.334,50.168c-1.204,0.361-2.484,0.546-3.48,0.546c-3.331,0-5.127-2.01-5.127-4.471c0-2.275,1.529-5.771,5.97-5.771
	c2.619,0,4.593,1.294,4.593,4.266c0,0.395-0.116,1.259-0.25,1.839h-7.061c0.038,1.054,0.575,1.88,2.68,1.88
	c0.915,0,2.162-0.225,3.117-0.676L198.334,50.168z"/>
</svg>
