<?xml version="1.0" encoding="utf-8"?>
<!-- Generator: Adobe Illustrator 16.0.0, SVG Export Plug-In . SVG Version: 6.00 Build 0)  -->
<!DOCTYPE svg PUBLIC "-//W3C//DTD SVG 1.1//EN" "http://www.w3.org/Graphics/SVG/1.1/DTD/svg11.dtd">
<svg version="1.1" xmlns="http://www.w3.org/2000/svg" xmlns:xlink="http://www.w3.org/1999/xlink" x="0px" y="0px"
	 width="103.863px" height="74.475px" viewBox="0 0 103.863 74.475" enable-background="new 0 0 103.863 74.475"
	 xml:space="preserve">
<g id="Calque_0_xA0_Image_1_">
</g>
<g id="In_Logia_xA0_Image_1_">
	<g>
		<path fill-rule="evenodd" clip-rule="evenodd" fill="#FFFFFF" d="M101.912,40.455c-0.393,0.108-0.354,0.487-0.429,0.758
			c-0.708,2.561-1.394,5.129-2.084,7.695c-0.647,2.407-1.306,4.809-1.926,7.222c-0.152,0.594-0.467,1.248,0.139,1.804
			c0.466,0.43,1.304,0.462,1.973,0.082c0.359-0.204,0.72-0.404,1.077-0.604c0.676,0.936,0.706,0.979-0.214,1.613
			c-1.902,1.31-4.007,1.954-6.314,1.495c-1.36-0.271-2.495-0.94-2.858-2.444c-0.013-0.053-0.073-0.094-0.156-0.196
			c-0.914,0.836-1.909,1.54-3.04,2.028c-2.113,0.91-4.289,1.135-6.424,0.206c-1.447-0.63-2.514-1.754-3.094-3.271
			c-1.032-2.697-0.719-5.336,0.318-7.953c0.883-2.229,2.226-4.147,3.992-5.736c2.417-2.173,5.194-3.596,8.536-3.565
			c1.905,0.018,3.535,0.84,5.013,1.977c0.265,0.204,0.443,0.27,0.77,0.138c1.137-0.458,2.288-0.882,3.442-1.294
			c0.426-0.152,0.792-0.477,1.279-0.455C101.912,40.121,101.912,40.288,101.912,40.455z M84.473,54.375
			c-0.021,0.824,0.091,1.629,0.453,2.368c0.746,1.525,1.693,1.84,3.238,1.367c1.208-0.369,2.027-1.354,2.761-2.351
			c0.201-0.276,0.371-0.581,0.476-0.938c0.417-1.414,0.803-2.833,1.159-4.264c0.569-2.293,1.229-4.563,1.826-6.849
			c0.322-1.234-0.551-2.318-1.836-2.382c-1.854-0.092-3.085,0.953-4.169,2.252c-1.271,1.522-2.087,3.3-2.744,5.147
			C84.988,50.552,84.554,52.43,84.473,54.375z"/>
		<path fill-rule="evenodd" clip-rule="evenodd" fill="#FFFFFF" d="M2.453,56.084c0.389-2.508,1.175-4.917,1.835-7.357
			c1.129-4.169,2.251-8.34,3.374-12.512c0.205-0.761,0.394-1.527,0.602-2.288c0.069-0.254,0.121-0.508,0.51-0.504
			c1.859,0.019,3.717,0.009,5.576,0.014c0.077,0,0.154,0.041,0.273,0.077c-0.187,0.775-0.351,1.537-0.555,2.289
			c-0.495,1.84-0.98,3.685-1.483,5.521c-0.635,2.316-1.229,4.643-1.869,6.959c-0.65,2.353-1.275,4.714-1.901,7.074
			c-0.127,0.481-0.231,0.969-0.204,1.476c0.043,0.81,0.651,1.258,1.445,1.096c0.584-0.118,1.107-0.363,1.62-0.642
			c0.291-0.158,0.546-0.218,0.756,0.107c0.194,0.3,0.29,0.578-0.016,0.896c-0.874,0.91-1.948,1.479-3.119,1.887
			c-0.97,0.337-1.958,0.511-2.999,0.483c-0.998-0.028-1.855-0.34-2.676-0.874c-0.627-0.407-0.864-1.049-1.132-1.679
			C2.428,57.959,2.22,56.708,2.453,56.084z"/>
		<path fill-rule="evenodd" clip-rule="evenodd" fill="#FFFFFF" d="M57.661,40.945c0.266-1.157,0.834-2.068,1.761-2.688
			c1.495-0.999,3.555-1.034,4.59,0.598c0.699,1.106,0.298,2.604-0.847,3.229c-0.537,0.293-1.482,0.163-1.992-0.305
			c-0.321-0.294-0.624-0.606-0.879-0.972c-0.307-0.442-0.668-0.429-1.025-0.022c-0.364,0.415-0.341,1,0.052,1.411
			c2.566,2.675,2.263,6.376-0.036,8.966c-2.043,2.301-4.698,3.186-7.697,3.211c-1.372,0.013-2.747,0.038-4.061-0.468
			c-0.252-0.097-0.429,0.053-0.606,0.218c-0.625,0.583-1.152,1.269-1.866,1.758c-0.142,0.096-0.245,0.247-0.154,0.432
			c0.101,0.205,0.301,0.214,0.491,0.183c1.402-0.23,2.815-0.246,4.231-0.245c1.713,0.002,3.417,0.199,5.046,0.671
			c1.542,0.448,3.059,1.072,4.067,2.476c0.912,1.271,1.148,2.646,0.72,4.143c-0.011,0.04-0.028,0.079-0.04,0.118
			c-0.552,1.734-0.571,1.749-2.393,1.749c-0.94,0-1.881-0.012-2.821,0.005c-0.46,0.009-0.563-0.14-0.458-0.599
			c0.36-1.574-0.133-2.692-1.547-3.435c-2.06-1.083-4.271-1.22-6.55-1.034c-1.781,0.146-3.56,0.412-5.355,0.289
			c-0.433-0.03-0.916-0.117-1.14-0.543c-0.234-0.449,0.029-0.854,0.313-1.199c0.598-0.726,1.29-1.359,1.978-2
			c1.356-1.262,2.7-2.538,4.088-3.845c-0.495-0.474-0.923-0.917-1.387-1.319c-2.28-1.982-2.25-5.42-0.789-7.705
			c1.485-2.323,3.667-3.58,6.3-4.212c2.289-0.55,4.466-0.308,6.631,0.559C56.722,40.542,57.113,40.833,57.661,40.945z
			 M53.195,40.831c-0.973-0.113-1.786,0.439-2.335,1.14c-2.061,2.625-2.917,5.658-2.603,8.982c0.131,1.391,1.536,2.646,3.133,1.992
			c0.82-0.335,1.373-0.916,1.863-1.586c1.027-1.406,1.511-3.043,1.879-4.712c0.309-1.401,0.47-2.818,0.138-4.242
			C55.029,41.369,54.325,40.831,53.195,40.831z"/>
		<path fill-rule="evenodd" clip-rule="evenodd" fill="#FFFFFF" d="M22.122,31.802c-0.183-0.472-0.003-0.839,0.088-1.18
			c1.238-4.618,2.503-9.229,3.758-13.842c0.082-0.299,0.157-0.604,0.194-0.912c0.142-1.146-0.047-1.472-1.086-1.842
			c-0.329-0.117-0.604-0.263-0.507-0.653c0.1-0.4,0.098-0.888,0.747-0.891c0.977-0.004,1.951,0,2.933-0.088
			c1.621-0.146,3.209-0.405,4.776-0.83c0.161-0.044,0.313-0.122,0.506,0.021c-0.043,0.789-0.488,1.506-0.576,2.357
			c0.361-0.029,0.61-0.232,0.841-0.395c2.134-1.5,4.488-2.258,7.099-2.049c1.615,0.129,2.986,0.823,3.846,2.239
			c0.426,0.701,0.497,1.562,0.333,2.369c-0.26,1.278-0.596,2.542-0.922,3.806c-0.602,2.334-1.278,4.648-1.836,6.994
			c-0.183,0.766-0.503,1.5-0.471,2.309c0.025,0.624,0.516,0.995,1.138,0.895c0.719-0.115,1.211-0.594,1.707-1.065
			c0.663,0.886,0.639,1.226-0.135,1.859c-1.227,1.007-2.668,1.617-4.226,1.611c-1.657-0.005-3.265-0.398-4.382-1.842
			c-0.636-0.823-0.518-1.748-0.294-2.617c0.999-3.881,2.059-7.748,3.097-11.62c0.199-0.74,0.331-1.505-0.287-2.096
			c-0.591-0.566-1.317-0.699-2.145-0.483c-1.438,0.375-2.606,1.181-3.683,2.151c-0.262,0.236-0.43,0.56-0.521,0.911
			c-0.392,1.527-0.775,3.057-1.177,4.582c-0.848,3.214-1.709,6.425-2.554,9.64c-0.121,0.461-0.315,0.686-0.855,0.674
			C25.734,31.778,23.94,31.802,22.122,31.802z"/>
		<g>
			<g>
				<g>
					<g>
						<path fill="#FFFFFF" d="M35.935,42.001c-1.792-1.593-3.948-2.306-6.279-2.403c-2.871-0.119-5.537,0.621-7.975,2.206
							c-1.551,1.009-2.829,2.267-3.782,3.824c-1.47,2.399-2.104,5.008-1.631,7.824c0.361,2.151,1.426,3.905,3.175,5.196
							c1.901,1.402,4.048,2.094,6.251,2.003c2.826,0.054,5.263-0.649,7.524-2.021c1.155-0.701,2.144-1.588,2.98-2.634
							c1.308-1.636,2.099-3.495,2.447-5.58C39.197,47.118,38.493,44.275,35.935,42.001z M32.262,46.875
							c-0.196,1.378-0.483,2.733-0.837,4.073c-0.408,1.544-0.963,3.04-1.683,4.477c-0.565,1.129-1.242,2.16-2.177,3.014
							c-0.603,0.551-1.299,0.88-2.116,0.951c-0.845,0.073-1.535-0.232-1.987-0.937c-0.463-0.722-0.754-1.521-0.806-2.394
							c-0.022-0.372-0.087-0.741-0.125-1.052c0.136-2.081,0.574-4.042,1.127-5.981c0.59-2.073,1.373-4.058,2.587-5.859
							c0.595-0.884,1.327-1.631,2.292-2.055c1.267-0.557,2.756-0.243,3.375,1.352C32.465,43.885,32.476,45.365,32.262,46.875z"/>
					</g>
				</g>
			</g>
		</g>
		<path fill-rule="evenodd" clip-rule="evenodd" fill="#FFFFFF" d="M74.979,39.578c0.143,0.318,0.12,0.584,0.043,0.848
			c-0.617,2.155-1.245,4.306-1.851,6.464c-0.75,2.677-1.482,5.358-2.224,8.037c-0.183,0.658-0.431,1.291-0.396,2.003
			c0.045,0.944,0.741,1.456,1.642,1.134c0.294-0.104,0.581-0.23,0.863-0.364c0.261-0.125,0.511-0.272,0.763-0.408
			c0.673,0.637,0.654,1.172-0.059,1.685c-1.76,1.263-3.731,1.954-5.876,1.631c-1.982-0.298-3.231-0.998-3.556-3.311
			c-0.149-1.07,0.271-2.134,0.54-3.175c0.789-3.058,1.621-6.104,2.435-9.156c0.123-0.46,0.277-0.906,0.263-1.403
			c-0.018-0.643-0.246-1.101-0.896-1.24c-0.549-0.118-0.694-0.434-0.612-0.949c0.085-0.533,0.366-0.688,0.903-0.684
			c2.311,0.019,4.604-0.186,6.854-0.742C74.193,39.857,74.559,39.714,74.979,39.578z"/>
		<path fill-rule="evenodd" clip-rule="evenodd" fill="#FFFFFF" d="M20.528,11.631c-0.186,0.619-0.357,1.277-0.523,1.936
			c-0.455,1.806-0.964,3.597-1.451,5.395c-0.611,2.257-1.226,4.514-1.828,6.772c-0.499,1.863-0.985,3.729-1.467,5.597
			c-0.064,0.251-0.206,0.362-0.441,0.341c-1.83-0.167-3.664-0.104-5.496-0.122c-0.4-0.005-0.361-0.285-0.296-0.531
			c0.349-1.322,0.763-2.63,1.057-3.964c0.361-1.641,0.822-3.255,1.223-4.884c0.442-1.794,0.911-3.58,1.366-5.37
			c0.071-0.281,0.132-0.565,0.196-0.847c0.237-1.04-0.155-1.624-1.035-1.862c-0.521-0.141-0.51-0.55-0.436-0.955
			c0.071-0.387,0.208-0.671,0.729-0.656c2.693,0.079,5.351-0.181,7.946-0.948C20.216,11.489,20.356,11.46,20.528,11.631z"/>
		<path fill-rule="evenodd" clip-rule="evenodd" fill="#FFFFFF" d="M73.381,36.818c-2.354-0.046-3.454-1.679-3.551-3.63
			c-0.091-1.866,1.666-3.637,3.464-3.643c1.94-0.007,3.559,1.659,3.535,3.669C76.808,35.104,75.347,36.872,73.381,36.818z"/>
	</g>
	<path fill-rule="evenodd" clip-rule="evenodd" fill="#FFFFFF" d="M18.719,9.022c-2.354-0.046-3.454-1.679-3.55-3.63
		c-0.092-1.867,1.665-3.636,3.464-3.643c1.94-0.007,3.558,1.659,3.535,3.669C22.146,7.308,20.687,9.077,18.719,9.022z"/>
	<g>
		<path fill="#FFFFFF" d="M5.106,72.18c-0.124,0.157-0.413,0.45-0.945,0.45c-0.09,0-0.304-0.008-0.533-0.113
			c-0.3-0.142-0.705-0.503-0.705-1.286c0-0.143,0-0.521,0.243-0.87c0.127-0.184,0.432-0.514,1.013-0.514
			c0.506,0,0.772,0.251,0.893,0.42c0.086,0.128,0.139,0.259,0.184,0.397l-0.491,0.127c-0.004-0.033-0.02-0.119-0.068-0.209
			c-0.101-0.187-0.3-0.285-0.51-0.281c-0.149,0-0.254,0.044-0.307,0.071c-0.195,0.098-0.42,0.353-0.42,0.848
			c0,0.075,0.004,0.391,0.157,0.627c0.053,0.079,0.117,0.146,0.191,0.195c0.158,0.109,0.315,0.12,0.386,0.12
			c0.207,0,0.36-0.083,0.488-0.24c0.052-0.064,0.094-0.143,0.105-0.162c0.015-0.033,0.026-0.063,0.049-0.131l0.469,0.196
			C5.248,71.958,5.196,72.064,5.106,72.18z"/>
		<path fill="#FFFFFF" d="M11.354,72.251c-0.061,0.064-0.214,0.217-0.45,0.304c-0.083,0.03-0.236,0.075-0.461,0.075
			c-0.375,0-0.661-0.124-0.908-0.409c-0.247-0.281-0.352-0.611-0.352-0.979c0-0.086,0.003-0.289,0.079-0.514
			c0.172-0.529,0.626-0.881,1.193-0.881c0.51,0,0.813,0.277,0.937,0.42c0.139,0.157,0.334,0.465,0.331,0.971
			C11.722,71.404,11.703,71.872,11.354,72.251z M11.065,70.649c-0.138-0.225-0.349-0.349-0.615-0.349
			c-0.165,0-0.285,0.053-0.337,0.079c-0.188,0.102-0.42,0.349-0.42,0.844c0,0.101,0.003,0.588,0.375,0.833
			c0.161,0.105,0.322,0.112,0.39,0.112c0.053,0,0.173-0.004,0.304-0.063c0.195-0.091,0.45-0.315,0.461-0.814
			C11.227,71.073,11.186,70.841,11.065,70.649z"/>
		<path fill="#FFFFFF" d="M17.295,72.562l-0.521-0.982h-0.446v0.982h-0.491v-2.647h1.084c0.12,0,0.476,0.012,0.712,0.322
			c0.154,0.203,0.161,0.431,0.161,0.518c0,0.042-0.003,0.173-0.049,0.296c-0.041,0.108-0.169,0.337-0.473,0.431l0.589,1.08H17.295z
			 M17.127,70.421c-0.086-0.057-0.188-0.079-0.397-0.079h-0.402v0.825h0.177c0.289,0,0.469,0,0.589-0.064
			c0.075-0.041,0.198-0.138,0.198-0.353C17.292,70.684,17.284,70.526,17.127,70.421z"/>
		<path fill="#FFFFFF" d="M23.518,71.513c-0.229,0.146-0.476,0.149-0.735,0.149h-0.386v0.9h-0.495v-2.647h0.893
			c0.063,0,0.127-0.004,0.191,0c0.117,0.008,0.45,0.03,0.686,0.307c0.191,0.221,0.199,0.469,0.199,0.574
			C23.87,71.208,23.657,71.422,23.518,71.513z M23.3,70.533c-0.112-0.195-0.333-0.195-0.525-0.195h-0.379v0.919h0.356
			c0.033,0,0.071-0.004,0.104-0.004c0.255-0.012,0.368-0.09,0.432-0.195c0.026-0.045,0.071-0.143,0.071-0.278
			C23.36,70.698,23.342,70.608,23.3,70.533z"/>
		<path fill="#FFFFFF" d="M29.928,72.251c-0.06,0.064-0.214,0.217-0.45,0.304c-0.082,0.03-0.236,0.075-0.461,0.075
			c-0.375,0-0.66-0.124-0.908-0.409c-0.247-0.281-0.353-0.611-0.353-0.979c0-0.086,0.003-0.289,0.079-0.514
			c0.173-0.529,0.627-0.881,1.193-0.881c0.51,0,0.814,0.277,0.938,0.42c0.138,0.157,0.333,0.465,0.33,0.971
			C30.295,71.404,30.276,71.872,29.928,72.251z M29.639,70.649c-0.139-0.225-0.349-0.349-0.616-0.349
			c-0.165,0-0.284,0.053-0.337,0.079c-0.188,0.102-0.421,0.349-0.421,0.844c0,0.101,0.004,0.588,0.376,0.833
			c0.161,0.105,0.322,0.112,0.39,0.112c0.053,0,0.172-0.004,0.304-0.063c0.196-0.091,0.45-0.315,0.461-0.814
			C29.8,71.073,29.759,70.841,29.639,70.649z"/>
		<path fill="#FFFFFF" d="M35.869,72.562l-0.521-0.982H34.9v0.982h-0.49v-2.647h1.083c0.12,0,0.477,0.012,0.712,0.322
			c0.154,0.203,0.162,0.431,0.162,0.518c0,0.042-0.004,0.173-0.049,0.296c-0.042,0.108-0.169,0.337-0.472,0.431l0.588,1.08H35.869z
			 M35.7,70.421c-0.087-0.057-0.188-0.079-0.398-0.079H34.9v0.825h0.177c0.289,0,0.469,0,0.589-0.064
			c0.076-0.041,0.199-0.138,0.199-0.353C35.865,70.684,35.857,70.526,35.7,70.421z"/>
		<path fill="#FFFFFF" d="M42.023,72.562l-0.153-0.517h-0.994l-0.154,0.517h-0.532l0.896-2.647h0.563l0.903,2.647H42.023z
			 M41.374,70.391l-0.367,1.219h0.731L41.374,70.391z"/>
		<path fill="#FFFFFF" d="M47.289,70.361v2.201h-0.495v-2.201h-0.72v-0.446h1.946v0.446H47.289z"/>
		<path fill="#FFFFFF" d="M52.03,72.562v-2.647h1.883v0.442h-1.396v0.623h1.279v0.427h-1.279v0.709h1.489v0.446H52.03z"/>
		<path fill="#FFFFFF" d="M64.374,72.562v-1.204h-1.137v1.204h-0.499v-2.647h0.499v0.997h1.137v-0.997h0.499v2.647H64.374z"/>
		<path fill="#FFFFFF" d="M71.162,72.251c-0.06,0.064-0.214,0.217-0.45,0.304c-0.082,0.03-0.236,0.075-0.461,0.075
			c-0.375,0-0.66-0.124-0.908-0.409c-0.247-0.281-0.353-0.611-0.353-0.979c0-0.086,0.004-0.289,0.079-0.514
			c0.172-0.529,0.626-0.881,1.192-0.881c0.511,0,0.814,0.277,0.938,0.42c0.138,0.157,0.333,0.465,0.33,0.971
			C71.529,71.404,71.511,71.872,71.162,72.251z M70.874,70.649c-0.139-0.225-0.349-0.349-0.616-0.349
			c-0.165,0-0.285,0.053-0.337,0.079c-0.188,0.102-0.421,0.349-0.421,0.844c0,0.101,0.004,0.588,0.376,0.833
			c0.161,0.105,0.322,0.112,0.39,0.112c0.053,0,0.172-0.004,0.304-0.063c0.195-0.091,0.45-0.315,0.461-0.814
			C71.035,71.073,70.994,70.841,70.874,70.649z"/>
		<path fill="#FFFFFF" d="M77.729,72.022c-0.086,0.266-0.39,0.608-1.039,0.608c-0.312,0-0.623-0.075-0.84-0.315
			c-0.034-0.034-0.124-0.143-0.169-0.285c-0.042-0.136-0.042-0.259-0.042-0.54v-1.575h0.499v1.627c0,0.158,0,0.214,0.026,0.292
			c0.048,0.158,0.191,0.315,0.543,0.315c0.064,0,0.428,0,0.537-0.3c0.03-0.086,0.034-0.157,0.034-0.333v-1.602h0.495v1.526
			C77.774,71.745,77.778,71.872,77.729,72.022z"/>
		<path fill="#FFFFFF" d="M83.824,72.356c-0.319,0.271-0.747,0.274-0.866,0.274c-0.157,0-0.664-0.008-1.031-0.394
			c-0.045-0.049-0.095-0.112-0.127-0.172l0.416-0.289c0.117,0.172,0.334,0.397,0.821,0.397c0.023,0,0.117,0,0.195-0.019
			c0.057-0.011,0.315-0.083,0.315-0.33c0-0.026-0.004-0.098-0.049-0.158c-0.09-0.12-0.33-0.153-0.462-0.184l-0.314-0.07
			c-0.136-0.031-0.282-0.061-0.401-0.124c-0.124-0.064-0.379-0.233-0.379-0.615c0-0.061,0.007-0.233,0.101-0.391
			c0.12-0.202,0.409-0.435,0.945-0.435c0.237,0,0.702,0.038,1.069,0.536l-0.409,0.304c-0.083-0.131-0.27-0.394-0.687-0.394
			c-0.026,0-0.36-0.003-0.469,0.203c-0.022,0.042-0.03,0.079-0.03,0.12c0,0.045,0.012,0.083,0.034,0.12
			c0.063,0.109,0.209,0.143,0.454,0.195l0.274,0.06c0.251,0.057,0.528,0.131,0.704,0.337c0.076,0.083,0.154,0.203,0.154,0.447
			C84.083,72.014,84.008,72.198,83.824,72.356z"/>
		<path fill="#FFFFFF" d="M88.152,72.562v-2.647h0.487v2.647H88.152z"/>
		<path fill="#FFFFFF" d="M94.506,72.562l-1.159-1.856l0.03,1.856h-0.483v-2.647h0.446l1.174,1.868l-0.06-1.868h0.487v2.647H94.506z
			"/>
		<path fill="#FFFFFF" d="M101.024,72.562l-0.004-0.225c-0.213,0.199-0.431,0.292-0.728,0.292c-0.162,0-0.528-0.023-0.848-0.334
			c-0.154-0.154-0.394-0.484-0.394-1.031c0-0.337,0.102-0.69,0.312-0.957c0.12-0.15,0.435-0.461,0.971-0.461
			c0.075,0,0.244,0.007,0.436,0.079c0.172,0.067,0.506,0.243,0.679,0.701l-0.472,0.187c-0.045-0.127-0.184-0.521-0.646-0.521
			c-0.09,0-0.3,0.015-0.477,0.191c-0.127,0.131-0.262,0.356-0.262,0.766c0,0.108,0,0.506,0.304,0.761
			c0.131,0.109,0.277,0.15,0.446,0.15c0.263,0,0.495-0.127,0.597-0.375c0.022-0.052,0.041-0.116,0.057-0.236h-0.661v-0.435h1.114
			v1.447H101.024z"/>
	</g>
</g>
</svg>
