<?xml version="1.0" encoding="utf-8"?>
<!-- Generator: Adobe Illustrator 16.0.0, SVG Export Plug-In . SVG Version: 6.00 Build 0)  -->
<!DOCTYPE svg PUBLIC "-//W3C//DTD SVG 1.1//EN" "http://www.w3.org/Graphics/SVG/1.1/DTD/svg11.dtd">
<svg version="1.1" id="Layer_1" xmlns="http://www.w3.org/2000/svg" xmlns:xlink="http://www.w3.org/1999/xlink" x="0px" y="0px"
	 width="179.656px" height="21.713px" viewBox="0 0 179.656 21.713" enable-background="new 0 0 179.656 21.713"
	 xml:space="preserve">
<g>
	<g>
		<g>
			<g>
				<g>
					<path fill="#FFFFFF" d="M1.071,1.079h8.441c2.664,0,6.019,1.356,6.019,5.2c0,2.648-2.507,5.277-6.625,5.277
						c-0.954,0-1.985-0.125-2.647-0.396v3.927c0,3.111,0.061,4.26,0.838,4.26h1.734v0.903h-7.01v-0.903h1.42
						c0.335,0,0.451-0.22,0.451-0.484V6.242c0-3.109-0.053-4.255-0.85-4.255H1.071V1.079z M6.259,10.259
						c0.694,0.268,1.469,0.395,2.262,0.395c2.508,0,4.436-1.416,4.436-3.993c0-1.506-0.578-4.497-5.549-4.497
						c-0.906,0-1.211,0.033-1.149,0.484V10.259z"/>
					<path fill="#FFFFFF" d="M24.727,1.079h7.009v0.906H30.38c-0.336,0-0.46,0.212-0.46,0.486v11.439
						c0,4.432,2.928,5.674,5.126,5.674c6.252,0,6.348-4.801,6.348-7.19v-7.24c0-1.394-0.058-3.169-0.973-3.169h-1.606V1.079h5.524
						v0.906h-1.115c-0.358,0-0.691,0.159-0.691,0.6v10.751c0,4.643-2.952,7.487-7.633,7.487c-7.21,0-7.544-4.711-7.544-7.876V6.24
						c0-3.11-0.06-4.255-0.85-4.255h-1.779V1.079z"/>
					<path fill="#FFFFFF" d="M55.999,6.24c0-3.11-0.055-4.255-0.845-4.255h-1.777V1.079h9.052c3.019,0,5.083,1.665,5.083,4.254
						c0,2.147-1.759,3.474-3.598,4.172v0.06c2.594,0.51,4.794,2.324,4.794,5.136c0,2.503-1.683,5.549-7.624,5.549h-6.953v-0.903
						h1.41c0.339,0,0.459-0.22,0.459-0.484V6.24H55.999z M65.157,5.816c0-2.656-2.122-3.652-3.588-3.652h-2.396
						c-0.451,0-0.61,0-0.61,0.553v6.3c2.822,0,3.368,0.031,4.298,0.246C64.249,8.503,65.157,7.48,65.157,5.816z M58.563,9.929v5.496
						c0,3.738,0.337,3.738,1.251,3.738h1.896c3.35,0,4.441-2.325,4.441-4.258c0-1.57-0.964-4.978-5.92-4.978h-1.668V9.929z"/>
					<path fill="#FFFFFF" d="M84.987,1.985h-1.359c-0.334,0-0.457,0.212-0.457,0.486v12.953c0,3.738,0.325,3.738,1.231,3.738h2.024
						c5.139,0,6.304-0.758,6.832-1.598c0.082-0.154,0.149-0.333,0.363-0.333c0.117,0,0.229,0.179,0.229,0.333
						c0,0.268-0.39,1.477-0.744,2.683H78.734v-0.903h1.41c0.341,0,0.465-0.219,0.465-0.485V6.24c0-3.11-0.058-4.255-0.843-4.255
						h-1.779V1.079h7.004v0.906H84.987z"/>
					<path fill="#FFFFFF" d="M107.821,15.087c0,3.111,0.064,4.26,0.854,4.26h1.727v0.903h-7.005v-0.903h1.42
						c0.328,0,0.449-0.22,0.449-0.484V6.242c0-3.109-0.053-4.255-0.849-4.255h-1.778V1.079h7v0.906h-1.344
						c-0.339,0-0.475,0.212-0.475,0.486V15.087z"/>
					<path fill="#FFFFFF" d="M137.56,4.071c-0.271,0-0.294-0.126-0.361-0.574c-0.152-1.085-2.658-1.906-4.467-1.906
						c-5.55,0-8.75,4.226-8.75,9.477c0,5.616,4.216,8.662,7.958,8.662c2.716,0,5.704-1.23,5.924-2.933
						c0.033-0.23,0.058-0.541,0.392-0.541c0.241,0,0.3,0.219,0.3,0.398c0,0.275-0.059,0.72-0.184,2.629
						c-2.027,0.995-4.611,1.535-6.944,1.535c-5.999,0-10.193-3.142-10.193-9.417c0-6.494,5.402-10.9,11.677-10.9
						c1.85,0,3.561,0.392,5.198,1.03C137.898,3.983,137.866,4.071,137.56,4.071z"/>
					<path fill="#FFFFFF" d="M153.647,15.087c0,3.111,0.053,4.26,0.852,4.26h1.718v0.903h-6.997v-0.903h1.418
						c0.328,0,0.45-0.22,0.45-0.484V6.242c0-3.109-0.066-4.255-0.839-4.255h-1.784V1.079h7.008v0.906h-1.362
						c-0.333,0-0.46,0.212-0.46,0.486v12.616H153.647z"/>
					<path fill="#FFFFFF" d="M168.562,5.065c0,2.445,2.256,3.233,4.169,3.951c3.857,1.425,5.699,2.663,5.699,5.89
						c0,2.634-2.295,5.917-7.277,5.917c-1.479,0-3.312-0.307-4.7-0.844c-0.354-1.878-0.454-2.509-0.454-2.775
						c0-0.214,0.101-0.367,0.358-0.367c0.303,0,0.396,0.301,0.454,0.576c0.419,1.683,3.23,2.319,4.711,2.319
						c2.413,0,4.891-1.203,4.891-3.921c0-2.319-1.761-3.354-4.739-4.439c-1.365-0.481-5.052-1.66-5.052-5.349
						c0-3.614,3.624-5.522,6.854-5.522c1.271,0,2.447,0.12,3.408,0.577c0.035,0.726,0.099,1.481,0.099,2.202
						c0,0.215-0.099,0.389-0.338,0.389c-0.29,0-0.319-0.24-0.349-0.447c-0.221-1.297-2.675-1.63-3.629-1.63
						C170.65,1.59,168.562,2.835,168.562,5.065z"/>
				</g>
			</g>
		</g>
	</g>
</g>
</svg>
