<?xml version="1.0" encoding="utf-8"?>
<!-- Generator: Adobe Illustrator 16.0.0, SVG Export Plug-In . SVG Version: 6.00 Build 0)  -->
<!DOCTYPE svg PUBLIC "-//W3C//DTD SVG 1.1//EN" "http://www.w3.org/Graphics/SVG/1.1/DTD/svg11.dtd">
<svg version="1.1" id="Layer_1" xmlns="http://www.w3.org/2000/svg" xmlns:xlink="http://www.w3.org/1999/xlink" x="0px" y="0px"
	 width="554px" height="120.701px" viewBox="0 0 554 120.701" enable-background="new 0 0 554 120.701" xml:space="preserve">
<g>
	<g>
		<path fill="#E6E2DA" d="M0.337,114.664L52.471,1.845C52.972,0.838,53.812,0,55.32,0h1.679c1.674,0,2.343,0.838,2.851,1.845
			l51.632,112.819c1.003,2.179-0.337,4.36-2.851,4.36H94.046c-2.512,0-3.688-1.007-4.862-3.351l-8.217-18.107H30.845l-8.21,18.107
			c-0.672,1.671-2.18,3.351-4.862,3.351H3.185C0.674,119.024-0.672,116.843,0.337,114.664z M72.756,78.958L55.99,42.08h-0.502
			L39.06,78.958H72.756z"/>
	</g>
	<path fill="#E6E2DA" d="M128.094,3.017c0-1.673,1.509-3.017,3.188-3.017h4.189l72.753,84.157h0.168V4.865
		c0-1.68,1.343-3.188,3.191-3.188h10.727c1.672,0,3.182,1.508,3.182,3.188v112.819c0,1.676-1.509,3.017-3.182,3.017h-4.36
		l-72.756-86.5h-0.165v81.635c0,1.68-1.346,3.188-3.185,3.188h-10.562c-1.679,0-3.188-1.508-3.188-3.188V3.017z"/>
	<path fill="#E6E2DA" d="M273.942,12.909h-29.165c-1.848,0-3.188-1.511-3.188-3.185V4.865c0-1.68,1.34-3.188,3.188-3.188h71.072
		c1.846,0,3.191,1.508,3.191,3.188v4.859c0,1.674-1.346,3.185-3.191,3.185h-29.168v102.927c0,1.68-1.509,3.188-3.182,3.188h-6.375
		c-1.672,0-3.183-1.508-3.183-3.188V12.909z"/>
	<path fill="#E6E2DA" d="M335.152,3.856c0-1.172,0.84-2.179,2.18-2.179h41.574c20.449,0,37.386,15.419,37.386,35.875
		c0,16.931-11.741,30.508-27.662,35.036l24.476,43.417c0.837,1.338,0.498,3.019-1.175,3.019h-5.201
		c-1.166,0-1.837-0.502-2.344-1.508l-24.308-43.92c-2.18,0.163-4.023,0.163-6.202,0.163h-30.845v43.084
		c0,1.174-1.002,2.181-2.684,2.181h-3.016c-1.172,0-2.18-1.007-2.18-2.181V3.856z M378.57,66.721
		c16.094,0,29.673-12.572,29.673-29.168c0-15.928-13.579-28.166-29.841-28.166h-35.201v57.334H378.57z"/>
	<path fill="#E6E2DA" d="M493.316,0C527.019,0,554,26.824,554,60.519c0,33.697-26.981,60.183-60.684,60.183
		c-33.695,0-60.518-26.485-60.518-60.183C432.799,26.824,459.621,0,493.316,0z M493.316,117.684
		c32.018,0,57.668-25.148,57.668-57.166c0-32.016-25.65-57.501-57.668-57.501c-32.014,0-57.496,25.485-57.496,57.501
		C435.82,92.536,461.303,117.684,493.316,117.684z"/>
</g>
</svg>
