<?xml version="1.0" encoding="utf-8"?>
<!-- Generator: Adobe Illustrator 16.0.0, SVG Export Plug-In . SVG Version: 6.00 Build 0)  -->
<!DOCTYPE svg PUBLIC "-//W3C//DTD SVG 1.1//EN" "http://www.w3.org/Graphics/SVG/1.1/DTD/svg11.dtd">
<svg version="1.1" id="Layer_1" xmlns="http://www.w3.org/2000/svg" xmlns:xlink="http://www.w3.org/1999/xlink" x="0px" y="0px"
	 width="40px" height="40px" viewBox="0 0 40 40" enable-background="new 0 0 40 40" xml:space="preserve">
<path opacity="0.3" fill="#353535" enable-background="new    " d="M19.919,2.543c10.329,0,18.597,8.22,18.597,18.546
	c0,10.326-8.269,18.443-18.597,18.443c-10.326,0-18.546-8.117-18.546-18.443C1.373,10.763,9.594,2.543,19.919,2.543z M19.919,38.609
	c9.813,0,17.674-7.707,17.674-17.521c0-9.812-7.86-17.622-17.674-17.622c-9.81,0-17.62,7.811-17.62,17.622
	C2.3,30.902,10.109,38.609,19.919,38.609z"/>
<path fill="#353535" d="M3.322,34.885L18.971,1.02c0.15-0.302,0.402-0.554,0.855-0.554h0.504c0.502,0,0.704,0.251,0.855,0.554
	l15.498,33.865c0.301,0.654-0.101,1.309-0.855,1.309H31.45c-0.755,0-1.107-0.303-1.46-1.008l-2.467-5.434H12.479l-2.464,5.434
	c-0.202,0.502-0.654,1.008-1.459,1.008h-4.38C3.423,36.193,3.019,35.539,3.322,34.885z M25.059,24.166l-5.032-11.069h-0.151
	l-4.931,11.069H25.059z"/>
</svg>
