<?xml version="1.0" encoding="utf-8"?>
<!-- Generator: Adobe Illustrator 16.0.0, SVG Export Plug-In . SVG Version: 6.00 Build 0)  -->
<!DOCTYPE svg PUBLIC "-//W3C//DTD SVG 1.1//EN" "http://www.w3.org/Graphics/SVG/1.1/DTD/svg11.dtd">
<svg version="1.1" id="Layer_1" xmlns="http://www.w3.org/2000/svg" xmlns:xlink="http://www.w3.org/1999/xlink" x="0px" y="0px"
	 width="101.25px" height="30.25px" viewBox="0 0 101.25 30.25" enable-background="new 0 0 101.25 30.25" xml:space="preserve">
<g>
	<path fill="#FFFFFF" d="M70.962,24.832v-13.75c0-1.824,1.883-4.217,4.302-4.607c0.093-0.006,0.185-0.01,0.279-0.01
		c2.887,0,4.976,2.791,4.976,4.673v17.651h4.863l0.002-17.706c0-2.208,1.853-4.572,4.61-4.572c2.887,0,4.976,2.791,4.976,4.672
		v17.651h4.863V11.048c0-2.256-0.998-4.577-2.74-6.367c-1.882-1.935-4.391-3-7.064-3c-2.763,0-5.246,1.107-7.015,3.085
		c-1.772-2.039-4.285-3.18-7.099-3.18c-0.531,0-1.062,0.042-1.583,0.126c-4.966,0.619-7.707,4.674-8.152,8.177
		c-0.049,0.367-0.075,0.725-0.075,1.064v13.87L70.962,24.832z"/>
	<path fill="#FFFFFF" d="M59.034,19.238c0,2.4-2.562,4.556-4.722,4.665c-2.159-0.109-4.77-2.266-4.77-4.666V1.586h-4.864
		l-0.002,17.786c0,4.505,3.621,9.368,9.47,9.368c0.046,0,0.092-0.001,0.138-0.002l0.032-0.001l0.03,0.001
		c0.045,0.001,0.091,0.002,0.137,0.002c5.573,0,9.131-4.438,9.4-8.768c0.013-0.183,0-14.646,0-14.646h-4.848V19.238z"/>
	<path fill="#FFFFFF" d="M44.655,25.762c0,0-1.35-2.439-2.186-4.056c-1.059,0.897-3.979,1.944-6.672,1.951
		c-4.692,0-8.495-3.803-8.495-8.494c0-4.691,3.803-8.494,8.495-8.494c4.521,0,6.679,1.996,6.679,1.996V3.329
		c-1.924-1.045-4.335-1.74-6.679-1.74c-7.497,0-13.574,6.077-13.574,13.574s6.078,13.574,13.574,13.574
		C39.033,28.737,42.323,27.651,44.655,25.762"/>
	<path fill="#FFFFFF" d="M21.739,21.706c-1.059,0.897-3.979,1.944-6.672,1.951c-3.481,0-6.469-2.097-7.781-5.094
		c-0.037-0.091-0.077-0.18-0.11-0.272c-0.008-0.02-0.015-0.04-0.022-0.06c-0.665-1.887-0.654-4.086-0.09-5.892
		c0.411-1.165,1.064-2.214,1.906-3.083c2.86-2.853,7.638-3.719,12.373-0.593c0.78-1.315,1.583-2.552,2.418-3.958
		c-2.305-1.995-5.387-3.113-8.572-3.11c-0.04-0.003-0.08-0.008-0.12-0.008c-7.497,0-13.574,6.077-13.574,13.574
		S7.57,28.737,15.066,28.737c3.236,0,6.526-1.086,8.857-2.976C23.924,25.762,22.574,23.322,21.739,21.706z"/>
</g>
</svg>
