<?xml version="1.0" encoding="utf-8"?>
<!-- Generator: Adobe Illustrator 16.0.0, SVG Export Plug-In . SVG Version: 6.00 Build 0)  -->
<!DOCTYPE svg PUBLIC "-//W3C//DTD SVG 1.1//EN" "http://www.w3.org/Graphics/SVG/1.1/DTD/svg11.dtd">
<svg version="1.1" id="Layer_1" xmlns="http://www.w3.org/2000/svg" xmlns:xlink="http://www.w3.org/1999/xlink" x="0px" y="0px"
	 width="98px" height="24.051px" viewBox="0 0 98 24.051" enable-background="new 0 0 98 24.051" xml:space="preserve">
<g>
	<path fill="#F5F5F5" d="M1.801,16.339H0.258v-3.65h1.543v-2.611c0-1.535,0.375-2.678,1.126-3.429
		c0.408-0.409,0.891-0.703,1.446-0.882s1.225-0.27,2.008-0.27c0.719,0,1.311,0.033,1.776,0.098C8.624,5.66,9.044,5.75,9.42,5.863
		v3.283C9.142,9.064,8.865,9,8.587,8.95c-0.278-0.049-0.58-0.074-0.906-0.074c-0.882,0-1.323,0.417-1.323,1.25v2.557h2.986v3.656
		H6.431v7.212h-4.63V16.339z"/>
	<path fill="#F5F5F5" d="M11.748,5.863h4.679v6.248c0.419-0.556,0.943-1.046,1.573-1.471c0.629-0.425,1.411-0.637,2.347-0.637
		c1.428,0,2.541,0.433,3.337,1.298c0.796,0.866,1.194,2.058,1.194,3.577v8.672H20.2v-7.179c0-0.734-0.169-1.289-0.508-1.665
		c-0.339-0.376-0.782-0.563-1.33-0.563c-0.564,0-1.028,0.188-1.39,0.563c-0.363,0.376-0.544,0.931-0.544,1.665v7.179h-4.679V5.863z"
		/>
</g>
<g>
	<path fill="#F5F5F5" d="M37.52,23.518c-0.903,0-1.767-0.153-2.593-0.46c-0.825-0.307-1.59-0.778-2.292-1.414l1.238-1.473
		c0.568,0.491,1.144,0.867,1.723,1.13c0.58,0.262,1.238,0.394,1.975,0.394c0.636,0,1.14-0.134,1.514-0.402
		c0.374-0.268,0.56-0.624,0.56-1.07v-0.034c0-0.211-0.035-0.398-0.108-0.56c-0.074-0.163-0.207-0.315-0.403-0.461
		c-0.195-0.145-0.465-0.278-0.805-0.401c-0.342-0.123-0.786-0.245-1.333-0.368c-0.627-0.145-1.183-0.31-1.669-0.493
		c-0.487-0.185-0.895-0.407-1.224-0.67c-0.331-0.263-0.583-0.582-0.756-0.962c-0.173-0.379-0.26-0.837-0.26-1.372v-0.033
		c0-0.503,0.1-0.963,0.299-1.381c0.199-0.418,0.473-0.775,0.821-1.07c0.349-0.296,0.768-0.528,1.258-0.695
		c0.49-0.167,1.024-0.251,1.605-0.251c0.858,0,1.631,0.125,2.317,0.377c0.686,0.251,1.33,0.616,1.933,1.096l-1.104,1.557
		c-0.535-0.391-1.065-0.688-1.59-0.896c-0.524-0.207-1.054-0.31-1.589-0.31c-0.603,0-1.071,0.134-1.406,0.401
		s-0.501,0.597-0.501,0.987v0.033c0,0.224,0.039,0.421,0.117,0.595c0.078,0.173,0.22,0.329,0.427,0.468
		c0.207,0.14,0.493,0.271,0.856,0.394c0.364,0.123,0.825,0.251,1.384,0.385c0.615,0.156,1.161,0.329,1.636,0.519
		c0.475,0.19,0.869,0.422,1.182,0.694c0.314,0.273,0.551,0.591,0.713,0.954c0.162,0.363,0.244,0.784,0.244,1.263v0.035
		c0,0.546-0.103,1.036-0.307,1.471c-0.205,0.437-0.49,0.805-0.855,1.105s-0.804,0.53-1.316,0.687
		C38.697,23.439,38.135,23.518,37.52,23.518z"/>
	<path fill="#F5F5F5" d="M46.992,13.545h-3.715v-1.908h9.505v1.908h-3.714v9.806h-2.076V13.545z"/>
	<path fill="#F5F5F5" d="M59.76,23.535c-0.76,0-1.445-0.109-2.059-0.327c-0.615-0.218-1.139-0.544-1.572-0.979
		c-0.436-0.435-0.77-0.972-1.006-1.613c-0.234-0.643-0.35-1.387-0.35-2.234v-6.744h2.041v6.661c0,1.093,0.264,1.924,0.789,2.493
		c0.529,0.568,1.258,0.853,2.189,0.853c0.92,0,1.643-0.272,2.17-0.819s0.791-1.361,0.791-2.443v-6.744h2.041v6.643
		c0,0.87-0.119,1.635-0.359,2.293s-0.576,1.207-1.012,1.647s-0.963,0.77-1.582,0.987S60.529,23.535,59.76,23.535z"/>
	<path fill="#F5F5F5" d="M67.623,11.637h4.367c0.916,0,1.756,0.148,2.52,0.444c0.764,0.295,1.422,0.705,1.975,1.229
		s0.979,1.141,1.279,1.85c0.301,0.708,0.451,1.475,0.451,2.3v0.033c0,0.826-0.15,1.596-0.451,2.311
		c-0.301,0.713-0.727,1.332-1.279,1.856c-0.553,0.525-1.211,0.938-1.975,1.238c-0.764,0.302-1.604,0.452-2.52,0.452h-4.367V11.637z
		 M71.975,21.492c0.613,0,1.172-0.098,1.674-0.293s0.928-0.471,1.279-0.824c0.352-0.352,0.625-0.772,0.82-1.26
		s0.293-1.017,0.293-1.588v-0.034c0-0.57-0.098-1.103-0.293-1.596s-0.469-0.916-0.82-1.269s-0.777-0.63-1.279-0.832
		c-0.502-0.201-1.061-0.302-1.674-0.302h-2.311v7.997H71.975z"/>
	<path fill="#F5F5F5" d="M80.826,11.637h2.041v11.713h-2.041V11.637z"/>
	<path fill="#F5F5F5" d="M91.602,23.551c-0.904,0-1.729-0.158-2.477-0.477c-0.746-0.318-1.389-0.75-1.924-1.296
		c-0.535-0.547-0.953-1.186-1.256-1.917c-0.301-0.73-0.451-1.509-0.451-2.334v-0.034c0-0.824,0.15-1.603,0.451-2.333
		c0.303-0.731,0.727-1.373,1.271-1.925c0.547-0.553,1.195-0.99,1.941-1.314c0.748-0.323,1.572-0.485,2.477-0.485
		s1.73,0.159,2.477,0.477c0.748,0.318,1.389,0.75,1.926,1.297c0.535,0.547,0.953,1.186,1.254,1.916s0.451,1.509,0.451,2.334v0.033
		c0,0.826-0.15,1.604-0.451,2.335s-0.725,1.372-1.271,1.925c-0.547,0.552-1.193,0.989-1.941,1.313
		C93.33,23.39,92.506,23.551,91.602,23.551z M91.635,21.66c0.578,0,1.109-0.108,1.592-0.326c0.484-0.218,0.896-0.514,1.242-0.887
		c0.344-0.373,0.613-0.812,0.807-1.313c0.195-0.503,0.293-1.038,0.293-1.606v-0.034c0-0.568-0.098-1.106-0.293-1.614
		c-0.193-0.508-0.467-0.947-0.816-1.321s-0.768-0.672-1.258-0.896c-0.488-0.223-1.021-0.335-1.6-0.335
		c-0.576,0-1.107,0.109-1.59,0.326c-0.484,0.218-0.898,0.514-1.242,0.888c-0.346,0.374-0.615,0.811-0.809,1.312
		c-0.195,0.503-0.291,1.038-0.291,1.606v0.033c0,0.569,0.096,1.108,0.291,1.615c0.193,0.508,0.467,0.948,0.816,1.322
		s0.77,0.672,1.26,0.896C90.523,21.549,91.059,21.66,91.635,21.66z"/>
</g>
</svg>
